<svg width="120" height="120" viewBox="0 0 120 120" fill="none" xmlns="http://www.w3.org/2000/svg">
<path d="M116.343 14.4788C121.219 19.3554 121.219 27.2906 116.343 32.1673L58.317 90.1926C56.701 91.8086 54.5785 92.6165 52.456 92.6165C50.3335 92.6165 48.211 91.8086 46.595 90.1926L18.3904 61.9879C13.5138 57.1113 13.5138 49.1761 18.3904 44.2994C23.267 39.4228 31.2022 39.4228 36.0789 44.2994L52.456 60.6733L98.6541 14.4788C101.094 12.042 104.294 10.8204 107.5 10.8204C110.699 10.8204 113.906 12.042 116.343 14.4788ZM111.809 27.6338C114.185 25.2549 114.185 21.3881 111.809 19.0123C109.433 16.6364 105.563 16.6364 103.187 19.0123L56.5217 65.6781C55.4349 66.7649 53.9921 67.3614 52.4563 67.3614C50.9204 67.3614 49.4778 66.7652 48.3941 65.6781L31.5456 48.8329C30.3561 47.6435 28.7978 47.0503 27.2364 47.0503C25.675 47.0503 24.1136 47.6435 22.9241 48.8329C20.5483 51.2088 20.5483 55.0753 22.9241 57.4544L51.1288 85.659C51.8598 86.3901 53.0525 86.3901 53.7835 85.659L111.809 27.6338Z" fill="#027300"/>
<path d="M111.809 19.0122C114.185 21.3881 114.185 25.2546 111.809 27.6337L53.7835 85.659C53.0525 86.39 51.8597 86.39 51.1287 85.659L22.9241 57.4544C20.5482 55.0755 20.5482 51.2087 22.9241 48.8329C24.1136 47.6434 25.675 47.0502 27.2364 47.0502C28.7978 47.0502 30.3559 47.6434 31.5456 48.8329L48.3941 65.6781C49.4778 66.7649 50.9206 67.3614 52.4562 67.3614C53.9919 67.3614 55.4347 66.7651 56.5217 65.6781L103.188 19.0122C105.563 16.6364 109.433 16.6364 111.809 19.0122Z" fill="#03AD00"/>
<path d="M105.403 56.2136C105.493 57.4576 105.538 58.7305 105.538 60.0001C105.538 89.0961 81.8666 112.767 52.7704 112.767C23.6742 112.767 0 89.0961 0 59.9999C0 30.9037 23.6744 7.23279 52.7704 7.23279C64.2934 7.23279 75.2392 10.8815 84.4217 17.781C85.8387 18.8456 86.1242 20.8558 85.0597 22.2698C83.9952 23.6868 81.9849 23.9723 80.5709 22.9078C72.5042 16.848 62.8921 13.645 52.7701 13.645C27.2076 13.645 6.41225 34.4404 6.41225 59.9999C6.41225 85.5594 27.2076 106.355 52.7704 106.355C78.3301 106.355 99.1252 85.5594 99.1252 59.9999C99.1252 58.884 99.0835 57.7651 99.0066 56.675C98.8784 54.9083 100.209 53.3727 101.972 53.2445C103.742 53.1196 105.275 54.4468 105.403 56.2136Z" fill="#027300"/>
</svg>
