<svg width="30" height="30" viewBox="0 0 30 30" fill="none" xmlns="http://www.w3.org/2000/svg">
<path d="M16.7727 4.96148V3.23071H18.9545V0.230713H11.0454V3.23071H13.2273V4.96148C5.95852 5.70456 0.272705 10.9893 0.272705 17.3368C0.272705 24.1921 6.86384 29.7692 14.9655 29.7692C23.0671 29.7692 29.6583 24.1921 29.6583 17.3368C29.6583 10.9893 24.0414 5.70456 16.7727 4.96148ZM14.9655 26.7692C8.81875 26.7692 3.81816 22.5378 3.81816 17.3368C3.81816 12.1358 8.81875 7.90448 14.9655 7.90448C21.1121 7.90448 26.1128 12.1358 26.1128 17.3368C26.1128 22.5378 21.1121 26.7692 14.9655 26.7692ZM21.9657 13.0456L17.5147 16.8118C17.5631 16.9805 17.5914 17.1557 17.5914 17.3369C17.5914 18.5641 16.4157 19.5589 14.9655 19.5589C13.5153 19.5589 12.3395 18.5641 12.3395 17.3369C12.3395 16.1098 13.5153 15.115 14.9655 15.115C15.1797 15.115 15.3868 15.1391 15.5861 15.1801L20.0371 11.4138L21.9657 13.0456Z" fill="#ffffff"/>
</svg>
